<svg xmlns="http://www.w3.org/2000/svg" width="393" height="79" viewBox="0 0 393 79" fill="none"><path d="M167.9 65.4h-20.1c.4 1.4 1.2 2.5 2.4 3.3 1.2.8 2.6 1.1 4.4 1.1 1.3 0 2.5-.2 3.4-.6 1-.4 1.9-1 2.9-1.8l5.1 5.3c-2.7 3-6.6 4.5-11.8 4.5-3.2 0-6.1-.6-8.5-1.8-2.4-1.2-4.3-2.9-5.7-5.1-1.3-2.2-2-4.6-2-7.4 0-2.7.7-5.2 2-7.3 1.3-2.2 3.1-3.9 5.4-5.1 2.3-1.2 4.9-1.8 7.8-1.8 2.8 0 5.3.6 7.5 1.7s4 2.8 5.3 4.9c1.3 2.2 2 4.7 2 7.7 0 .1 0 .9-.1 2.4zm-18.4-8.5c-1 .9-1.6 2-1.9 3.5h11.3c-.3-1.5-.9-2.6-1.9-3.5-1-.8-2.3-1.3-3.7-1.3-1.4 0-2.8.4-3.8 1.3zm47.3-6.5c2.1 1.2 3.7 2.8 4.9 5 1.2 2.2 1.8 4.7 1.8 7.5s-.6 5.4-1.8 7.5c-1.2 2.2-2.8 3.9-4.9 5-2.1 1.2-4.3 1.8-6.9 1.8-3.6 0-6.4-1.1-8.2-3.2v2.8h-9.2V39h9.7v12.6c1.9-1.9 4.4-2.9 7.7-2.9 2.5 0 4.8.6 6.9 1.7zM192 67.8c1.1-1.2 1.6-2.8 1.6-4.9 0-2-.5-3.6-1.6-4.8-1.1-1.2-2.5-1.7-4.2-1.7-1.7 0-3.1.6-4.2 1.7-1.1 1.2-1.6 2.8-1.6 4.8 0 2.1.5 3.7 1.6 4.9 1.1 1.2 2.5 1.8 4.2 1.8 1.7 0 3.2-.6 4.2-1.8zm26.5-18.9v7.9h15.8v7.8h-15.8v12.2h-10.1V41.1h28v7.8h-17.9zm50.7.3v27.6H260v-3c-1 1.1-2.2 2-3.7 2.5-1.4.6-2.9.9-4.5.9-3.6 0-6.4-1.1-8.5-3.2-2.1-2.1-3.2-5.3-3.2-9.5V49h9.7v13.9c0 2.1.4 3.6 1.2 4.5.8 1 1.9 1.4 3.4 1.4s2.8-.5 3.7-1.6c1-1.1 1.5-2.7 1.5-4.9V49h9.6v.2zm6.2-10.2h9.7v37.8h-9.7V39zm15.9 0h9.7v37.8h-9.7V39zm20.6 37.4c-2.7-.7-4.9-1.7-6.6-2.9l3.3-7.4c1.6 1.1 3.5 1.9 5.6 2.6 2.1.6 4.2 1 6.2 1 3.9 0 5.8-1 5.8-2.9 0-1-.6-1.8-1.7-2.3-1.1-.5-2.9-1-5.3-1.6-2.7-.6-4.9-1.2-6.7-1.9-1.8-.7-3.3-1.7-4.6-3.2-1.3-1.5-1.9-3.4-1.9-5.9 0-2.2.6-4.1 1.8-5.9 1.2-1.8 3-3.1 5.3-4.2 2.4-1 5.3-1.5 8.7-1.5 2.3 0 4.7.3 6.9.8 2.3.5 4.3 1.3 6 2.3l-3.1 7.5c-3.4-1.8-6.7-2.8-9.9-2.8-2 0-3.5.3-4.4.9-.9.6-1.4 1.4-1.4 2.3 0 1 .5 1.7 1.6 2.1 1.1.5 2.8 1 5.3 1.5 2.7.6 5 1.2 6.8 1.9 1.8.7 3.3 1.7 4.6 3.2 1.3 1.4 2 3.4 2 5.9 0 2.1-.6 4.1-1.8 5.8-1.2 1.7-3 3.1-5.4 4.2-2.4 1-5.3 1.6-8.7 1.6-2.9 0-5.7-.3-8.4-1.1zm56.5-11h-20.1c.4 1.4 1.2 2.5 2.4 3.3 1.2.8 2.6 1.1 4.4 1.1 1.3 0 2.5-.2 3.4-.6 1-.4 1.9-1 2.9-1.8l5.1 5.3c-2.7 3-6.6 4.5-11.8 4.5-3.2 0-6.1-.6-8.5-1.8-2.4-1.2-4.3-2.9-5.7-5.1-1.3-2.2-2-4.6-2-7.4 0-2.7.7-5.2 2-7.3 1.3-2.2 3.1-3.9 5.4-5.1 2.3-1.2 4.9-1.8 7.8-1.8 2.8 0 5.3.6 7.5 1.7s4 2.8 5.3 4.9c1.3 2.2 2 4.7 2 7.7 0 .1 0 .9-.1 2.4zm-18.3-8.5c-1 .9-1.6 2-1.9 3.5h11.3c-.3-1.5-.9-2.6-1.9-3.5-1-.8-2.3-1.3-3.7-1.3-1.4 0-2.8.4-3.8 1.3zm42 18.8c-.8.5-1.8.9-3 1.2-1.2.3-2.4.4-3.7.4-3.6 0-6.4-.9-8.3-2.7-1.9-1.8-2.9-4.4-2.9-7.9v-9.3h-4v-7.2h4V43h9.7v7.2h6.3v7.2h-6.3v9.2c0 1 .3 1.8.8 2.3.5.6 1.2.8 2.1.8 1.1 0 2.1-.3 3-.9l2.3 6.9z" fill="#fff"/><path d="M136.3 29.1l-.4.9c-.5.8-1 1.7-1.6 2.4l-9 13.9-1.4 2.2L110.1 70h-.1c-3.7 5.1-9.7 8.4-16.4 8.4-8.3 0-15.4-5-18.5-12.1l-.6-.9-5.1-7.7-.5.7-2.9 4.2-4 5.9c-3.5 5.9-10 9.8-17.4 9.8-6.2 0-11.7-2.8-15.4-7.1-1.2-1.4-2.2-3-3-4.7L4.9 33.4c-.9-1-1.7-2.2-2.3-3.4 0 0 0-.1-.1-.1l-.6-1.2C.7 26.1 0 23.3 0 20.2c0-1.1.1-2.3.3-3.3C1.9 7.3 10.2 0 20.3 0c1.9 0 3.6.2 5.4.7 4.3 1.2 8 3.7 10.6 7.1.8 1 1.5 2 2 3.2l4.5 7 1.4 2.2 5.1-7.2 4.2-6 .1.1C57.3 2.8 62.8 0 69 0c6.4 0 12.2 3 15.9 7.7l.1-.1.5.8c.5.7 1 1.5 1.4 2.3l3.9 6.2 2.6 4.1.1-.1 8.4-13.1.1.1c3.1-4.1 7.7-6.9 13-7.7 1-.2 2-.2 3-.2 11.2 0 20.3 9.1 20.3 20.3 0 3.1-.7 6.1-2 8.8z" fill="#F00180"/><path d="M136.3 29.1l-.4.9c-.5.8-1 1.7-1.6 2.4l-4.5 6.9-4.5 7c-1.4.3-4.2.6-7.3-.5-2.6-.9-5.9-3.2-9.4-6.1-8.8-7.2-23.2-13.4-23.2-13.4l5.4-9.4 2.6 4.1.1-.1 3.5-5.5 4.9-7.6.1.1c3.1-4.1 7.7-6.9 13-7.7 1-.2 2-.2 3-.2 11.2 0 20.3 9.1 20.3 20.3 0 3.1-.7 6.1-2 8.8z" fill="#711FDB"/><path d="M108.6 39.7c-5.6-2.9-12.9-2.3-18.9 1-8.4 4.6-15.3 21.8-15.3 24.7l-5.1-7.7-.5.7-2.9 4.2-3.6-4.5s12.4-20.6 23.8-24.4c11.6-3.9 22.5 6 22.5 6z" fill="#B10062"/><path d="M136.3 29.1l-.4.9c-.5.8-1 1.7-1.6 2.4l-4.5 6.9c-1.5.3-3.6.7-6.8 0-2.8-.6-7.1-2.7-10.7-5.7-6.4-5.2-12.3-13.8-15.2-18.2l4.9-7.6.1.1c3.1-4.1 7.7-6.9 13-7.7 1-.2 2-.2 3-.2 11.2 0 20.3 9.1 20.3 20.3-.1 3.1-.8 6.1-2.1 8.8z" fill="#8729FF"/><path d="M108.7 39.8c-5-3.2-7.8-5.4-17.2-5.1-9.4.4-15.9 12.3-22.7 23.8l-6.9 10.1c-3.5 5.9-10 9.8-17.4 9.8-6.2 0-11.7-2.8-15.4-7.1-1.2-1.4-2.2-3-3-4.7L4.9 33.4c-.9-1-1.7-2.2-2.3-3.4 3 2.6 10.7 8.3 20.3 7.3 7.5-.8 13.3-10 20-19.2l1.4 2.2 5.1-7.2 4.2-6 .1.1C57.4 2.9 62.9.1 69.1.1c6.4 0 12.2 3 15.9 7.7l.1-.1.5.8c.5.7 1 1.5 1.4 2.3l6.5 10.3.1-.1c3 5.9 7.3 12.4 15.1 18.8z" fill="#FF1000"/><path d="M44.3 20.2l-3.8 5.5c-4.2 7-11.8 11.7-20.6 11.7-6.8 0-13-2.9-17.4-7.5l-.6-1.2C.8 26.3.1 23.5.1 20.7v-.5c0-1.1.1-2.3.3-3.3C2 7.3 10.3 0 20.4 0c1.9 0 3.6.2 5.4.7 4.3 1.2 8 3.7 10.6 7.1.8 1 1.5 2 2 3.2l2.4 3.7 3.5 5.5z" fill="#E8D105"/><path d="M40.8 14.7l-2.1 3.1c-4.2 7-11.8 11.7-20.6 11.7-6.8 0-13-2.9-17.4-7.5l-.6-1.2v-.6c0-1.1.1-2.3.3-3.3C2 7.3 10.3 0 20.4 0c1.9 0 3.6.2 5.4.7 4.3 1.2 8 3.7 10.6 7.1.8 1 1.5 2 2 3.2l2.4 3.7z" fill="#FFE600"/></svg>